# xmcd
#
# Track frame offsets:
#	150
#	33576
#	67720
#	88225
#	113328
#	135917
#	172708
#	196685
#	222484
#	258982
#	290701
#
# Disc length: 4727 seconds
#
# Revision: 1
# Processed by: cddbd v1.5.2PL0 Copyright (c) Steve Scherf et al.
# Submitted via: audiograbber 1.83.01
#
DISCID=9012750b
DTITLE=Grateful Dead - 77-05-13 Auditorium Theatre, Chicago IL
DYEAR=1900
DGENRE=
TTITLE0=The Music Never Stopped
TTITLE1=Ramble On Rose
TTITLE2=Cassidy
TTITLE3=Brown Eyed Women
TTITLE4=New Minglewood Blues
TTITLE5=Friend Of The Devil
TTITLE6=El Paso
TTITLE7=Jack-A-Roe
TTITLE8=Looks Like Rain
TTITLE9=Scarlet Begonias
TTITLE10=Fire On The Mountain
EXTD=
EXTT0=
EXTT1=
EXTT2=
EXTT3=
EXTT4=
EXTT5=
EXTT6=
EXTT7=
EXTT8=
EXTT9=
EXTT10=
PLAYORDER=
